<?xml version="1.0" standalone="no"?>
<!DOCTYPE svg PUBLIC "-//W3C//DTD SVG 20010904//EN"
 "http://www.w3.org/TR/2001/REC-SVG-20010904/DTD/svg10.dtd">
<svg version="1.0" xmlns="http://www.w3.org/2000/svg"
 width="64.000000pt" height="64.000000pt" viewBox="0 0 64.000000 64.000000"
 preserveAspectRatio="xMidYMid meet">

<g transform="translate(0.000000,64.000000) scale(0.100000,-0.100000)"
fill="#000000" stroke="none">
<path fill="rgba(234,51,35,1)" d="M520 620 c-11 -11 -20 -23 -20 -27 0 -5 -30 -8 -68 -8 -75 -1 -119
-19 -191 -79 -23 -20 -61 -41 -84 -47 -129 -35 -122 -30 -125 -76 -2 -26 4
-59 16 -86 30 -67 143 -181 214 -217 99 -49 137 -38 158 43 6 23 14 51 17 62
3 11 25 46 49 77 61 79 77 120 77 199 -1 57 1 66 20 75 32 13 35 67 5 88 -30
21 -44 20 -68 -4z m64 -26 c7 -19 -10 -44 -31 -44 -17 0 -27 24 -19 45 7 20
42 19 50 -1z m-151 -74 c-25 -11 -77 -55 -125 -105 -46 -48 -95 -93 -110 -101
-38 -20 -75 -18 -88 5 -15 30 -12 41 13 41 39 1 105 37 160 88 69 66 114 92
157 92 l35 0 -42 -20z"/>
<path fill="rgba(234,51,35,1)" d="M161 81 c-6 -11 -11 -24 -11 -30 0 -18 39 -51 59 -51 20 0 51 24 51
40 0 6 -53 44 -82 58 -4 2 -11 -6 -17 -17z"/>
</g>
</svg>
