<?xml version="1.0" encoding="UTF-8"?>
<svg version="1.1" viewBox="0 0 36 36" xmlns="http://www.w3.org/2000/svg">
    <use class="ytp-svg-shadow" href="#ytp-id-18"/>
    <path d="m23.94 18.78c0.03-0.25 0.05-0.51 0.05-0.78s-0.02-0.52-0.05-0.78l1.68-1.32c0.15-0.12 0.19-0.33 0.09-0.51l-1.6-2.76c-0.09-0.17-0.31-0.24-0.48-0.17l-1.99 0.8c-0.41-0.32-0.86-0.58-1.35-0.78l-0.3-2.12c-0.02-0.19-0.19-0.33-0.39-0.33h-3.2c-0.2 0-0.36 0.14-0.39 0.33l-0.3 2.12c-0.48 0.2-0.93 0.47-1.35 0.78l-1.99-0.8c-0.18-0.07-0.39 0-0.48 0.17l-1.6 2.76c-0.1 0.17-0.05 0.39 0.09 0.51l1.68 1.32c-0.03 0.25-0.05 0.52-0.05 0.78s0.02 0.52 0.05 0.78l-1.68 1.32c-0.15 0.12-0.19 0.33-0.09 0.51l1.6 2.76c0.09 0.17 0.31 0.24 0.48 0.17l1.99-0.8c0.41 0.32 0.86 0.58 1.35 0.78l0.3 2.12c0.02 0.19 0.19 0.33 0.39 0.33h3.2c0.2 0 0.36-0.14 0.39-0.33l0.3-2.12c0.48-0.2 0.93-0.47 1.35-0.78l1.99 0.8c0.18 0.07 0.39 0 0.48-0.17l1.6-2.76c0.09-0.17 0.05-0.39-0.09-0.51l-1.68-1.32zm-5.94 2.01c-1.54 0-2.8-1.25-2.8-2.8 0-1.54 1.25-2.8 2.8-2.8 1.54 0 2.8 1.25 2.8 2.8 0 1.54-1.25 2.8-2.8 2.8z" fill="#fff"/>
</svg>
