<?xml version="1.0" encoding="UTF-8"?>
<svg version="1.1" viewBox="0 0 36 36" xmlns="http://www.w3.org/2000/svg">
    <use class="ytp-svg-shadow" href="#ytp-id-14"/>
    <use class="ytp-svg-shadow" href="#ytp-id-15"/>
    <defs>
        <clipPath id="b">
            <path d="m14.35-0.14-5.86 5.86 20.73 20.78 5.86-5.91z"/>
            <path d="m7.07 6.87-8.18 8.46 20.72 20.78 8.19-8.51z"/>
            <path class="ytp-svg-volume-animation-mover" transform="translate(0)" d="m9.09 5.2-2.62 2.68 20.35 20.89 2.84-2.78z"/>
        </clipPath>
        <clipPath id="a">
            <path class="ytp-svg-volume-animation-mover" transform="translate(0)" d="m-11.45-15.55-4.44 4.51 20.45 20.94 4.55-4.66z"/>
        </clipPath>
    </defs>
    <path class="ytp-svg-fill ytp-svg-volume-animation-speaker" d="m8 21h4l5 5v-16l-5 5h-4v6zm11-7v8c1.48-0.68 2.5-2.23 2.5-4 0-1.74-1.02-3.26-2.5-4zm0-2.71c2.89 0.86 5 3.54 5 6.71s-2.11 5.85-5 6.71v2.06c4.01-0.91 7-4.49 7-8.77s-2.99-7.86-7-8.77v2.06z" clip-path="url(#b)" fill="#fff"/>
    <path class="ytp-svg-fill ytp-svg-volume-animation-hider" d="m9.25 9-1.27 1.27 16.73 16.73 1.27-1.27z" clip-path="url(#a)" display="none" fill="#fff"/>
</svg>
